<svg width="100" height="128" viewBox="0 0 100 128" fill="none" xmlns="http://www.w3.org/2000/svg">
<rect x="11.5725" y="89.2346" width="50.7734" height="7.97224" transform="rotate(34.998 11.5725 89.2346)" fill="#f0f0f0"/>
<rect x="88.4276" y="38.7654" width="50.7734" height="7.97224" transform="rotate(-145.002 88.4276 38.7654)" fill="#f0f0f0"/>
<path d="M100 109C100 119.493 91.4934 128 81 128L80 128L80 28L81 28C91.4934 28 100 36.5066 100 47L100 109Z" fill="#f0f0f0"/>
<path d="M1.52588e-05 19C1.52588e-05 8.50661 8.50661 1.52588e-05 19 1.52588e-05H20V100H19C8.50661 100 1.52588e-05 91.4934 1.52588e-05 81V19Z" fill="#f0f0f0"/>
<path d="M60 128L59 128C48.5066 128 40 119.493 40 109L40 70L41 70C51.4934 70 60 78.5066 60 89L60 128Z" fill="#f0f0f0"/>
<path d="M40 1.52588e-05L41 1.54277e-05C51.4934 1.71999e-05 60 8.50661 60 19L60 58L59 58C48.5066 58 40 49.4934 40 39L40 1.52588e-05Z" fill="#f0f0f0"/>
</svg>
