<svg width="105" height="16" viewBox="0 0 105 16" fill="none" xmlns="http://www.w3.org/2000/svg">
<path d="M11.9824 15H8.98438L3.58398 5.78125V15H0.78125V0.996094H3.7793L9.17969 10.2246V0.996094H11.9824V15ZM24.1895 15H14.5898V0.996094H24.1895V3.79883H17.3926V6.60156H21.9922V9.4043H17.3926V12.1973H24.1895V15ZM39.5215 8.05664C39.5215 8.7207 39.4336 9.36198 39.2578 9.98047C39.0885 10.5924 38.8477 11.1686 38.5352 11.709C38.2227 12.2428 37.8451 12.7311 37.4023 13.1738C36.9596 13.6165 36.4714 13.9974 35.9375 14.3164C35.4036 14.6289 34.8275 14.8698 34.209 15.0391C33.5905 15.2148 32.9492 15.3027 32.2852 15.3027C31.6211 15.3027 30.9798 15.2148 30.3613 15.0391C29.7493 14.8698 29.1732 14.6289 28.6328 14.3164C28.099 13.9974 27.6107 13.6165 27.168 13.1738C26.7253 12.7311 26.3444 12.2428 26.0254 11.709C25.7129 11.1686 25.4688 10.5924 25.293 9.98047C25.1237 9.36198 25.0391 8.7207 25.0391 8.05664C25.0391 7.39258 25.1237 6.7513 25.293 6.13281C25.4688 5.51432 25.7129 4.93815 26.0254 4.4043C26.3444 3.87044 26.7253 3.38216 27.168 2.93945C27.6107 2.49674 28.099 2.11914 28.6328 1.80664C29.1732 1.49414 29.7493 1.25326 30.3613 1.08398C30.9798 0.908203 31.6211 0.820312 32.2852 0.820312C32.9492 0.820312 33.5905 0.908203 34.209 1.08398C34.8275 1.25326 35.4036 1.49414 35.9375 1.80664C36.4714 2.11914 36.9596 2.49674 37.4023 2.93945C37.8451 3.38216 38.2227 3.87044 38.5352 4.4043C38.8477 4.93815 39.0885 5.51432 39.2578 6.13281C39.4336 6.7513 39.5215 7.39258 39.5215 8.05664ZM36.7383 8.05664C36.7383 7.44466 36.6211 6.86849 36.3867 6.32812C36.1523 5.78125 35.8333 5.30924 35.4297 4.91211C35.0326 4.50846 34.5605 4.18945 34.0137 3.95508C33.4733 3.7207 32.8971 3.60352 32.2852 3.60352C31.6667 3.60352 31.0872 3.7207 30.5469 3.95508C30.0065 4.18945 29.5345 4.50846 29.1309 4.91211C28.7272 5.30924 28.4082 5.78125 28.1738 6.32812C27.9395 6.86849 27.8223 7.44466 27.8223 8.05664C27.8223 8.66862 27.9395 9.24479 28.1738 9.78516C28.4082 10.319 28.7272 10.7878 29.1309 11.1914C29.5345 11.5951 30.0065 11.9141 30.5469 12.1484C31.0872 12.3828 31.6667 12.5 32.2852 12.5C32.8971 12.5 33.4733 12.3828 34.0137 12.1484C34.5605 11.9141 35.0326 11.5951 35.4297 11.1914C35.8333 10.7878 36.1523 10.319 36.3867 9.78516C36.6211 9.24479 36.7383 8.66862 36.7383 8.05664Z" fill="#314324"/>
<path d="M47.2461 15H44.4531V3.79883H40.2441V0.996094H51.4453V3.79883H47.2461V15ZM66.2012 8.05664C66.2012 8.7207 66.1133 9.36198 65.9375 9.98047C65.7682 10.5924 65.5273 11.1686 65.2148 11.709C64.9023 12.2428 64.5247 12.7311 64.082 13.1738C63.6393 13.6165 63.151 13.9974 62.6172 14.3164C62.0833 14.6289 61.5072 14.8698 60.8887 15.0391C60.2702 15.2148 59.6289 15.3027 58.9648 15.3027C58.3008 15.3027 57.6595 15.2148 57.041 15.0391C56.429 14.8698 55.8529 14.6289 55.3125 14.3164C54.7786 13.9974 54.2904 13.6165 53.8477 13.1738C53.4049 12.7311 53.0241 12.2428 52.7051 11.709C52.3926 11.1686 52.1484 10.5924 51.9727 9.98047C51.8034 9.36198 51.7188 8.7207 51.7188 8.05664C51.7188 7.39258 51.8034 6.7513 51.9727 6.13281C52.1484 5.51432 52.3926 4.93815 52.7051 4.4043C53.0241 3.87044 53.4049 3.38216 53.8477 2.93945C54.2904 2.49674 54.7786 2.11914 55.3125 1.80664C55.8529 1.49414 56.429 1.25326 57.041 1.08398C57.6595 0.908203 58.3008 0.820312 58.9648 0.820312C59.6289 0.820312 60.2702 0.908203 60.8887 1.08398C61.5072 1.25326 62.0833 1.49414 62.6172 1.80664C63.151 2.11914 63.6393 2.49674 64.082 2.93945C64.5247 3.38216 64.9023 3.87044 65.2148 4.4043C65.5273 4.93815 65.7682 5.51432 65.9375 6.13281C66.1133 6.7513 66.2012 7.39258 66.2012 8.05664ZM63.418 8.05664C63.418 7.44466 63.3008 6.86849 63.0664 6.32812C62.832 5.78125 62.513 5.30924 62.1094 4.91211C61.7122 4.50846 61.2402 4.18945 60.6934 3.95508C60.153 3.7207 59.5768 3.60352 58.9648 3.60352C58.3464 3.60352 57.7669 3.7207 57.2266 3.95508C56.6862 4.18945 56.2142 4.50846 55.8105 4.91211C55.4069 5.30924 55.0879 5.78125 54.8535 6.32812C54.6191 6.86849 54.502 7.44466 54.502 8.05664C54.502 8.66862 54.6191 9.24479 54.8535 9.78516C55.0879 10.319 55.4069 10.7878 55.8105 11.1914C56.2142 11.5951 56.6862 11.9141 57.2266 12.1484C57.7669 12.3828 58.3464 12.5 58.9648 12.5C59.5768 12.5 60.153 12.3828 60.6934 12.1484C61.2402 11.9141 61.7122 11.5951 62.1094 11.1914C62.513 10.7878 62.832 10.319 63.0664 9.78516C63.3008 9.24479 63.418 8.66862 63.418 8.05664ZM81.7676 8.05664C81.7676 8.7207 81.6797 9.36198 81.5039 9.98047C81.3346 10.5924 81.0938 11.1686 80.7812 11.709C80.4688 12.2428 80.0911 12.7311 79.6484 13.1738C79.2057 13.6165 78.7174 13.9974 78.1836 14.3164C77.6497 14.6289 77.0736 14.8698 76.4551 15.0391C75.8366 15.2148 75.1953 15.3027 74.5312 15.3027C73.8672 15.3027 73.2259 15.2148 72.6074 15.0391C71.9954 14.8698 71.4193 14.6289 70.8789 14.3164C70.3451 13.9974 69.8568 13.6165 69.4141 13.1738C68.9714 12.7311 68.5905 12.2428 68.2715 11.709C67.959 11.1686 67.7148 10.5924 67.5391 9.98047C67.3698 9.36198 67.2852 8.7207 67.2852 8.05664C67.2852 7.39258 67.3698 6.7513 67.5391 6.13281C67.7148 5.51432 67.959 4.93815 68.2715 4.4043C68.5905 3.87044 68.9714 3.38216 69.4141 2.93945C69.8568 2.49674 70.3451 2.11914 70.8789 1.80664C71.4193 1.49414 71.9954 1.25326 72.6074 1.08398C73.2259 0.908203 73.8672 0.820312 74.5312 0.820312C75.1953 0.820312 75.8366 0.908203 76.4551 1.08398C77.0736 1.25326 77.6497 1.49414 78.1836 1.80664C78.7174 2.11914 79.2057 2.49674 79.6484 2.93945C80.0911 3.38216 80.4688 3.87044 80.7812 4.4043C81.0938 4.93815 81.3346 5.51432 81.5039 6.13281C81.6797 6.7513 81.7676 7.39258 81.7676 8.05664ZM78.9844 8.05664C78.9844 7.44466 78.8672 6.86849 78.6328 6.32812C78.3984 5.78125 78.0794 5.30924 77.6758 4.91211C77.2786 4.50846 76.8066 4.18945 76.2598 3.95508C75.7194 3.7207 75.1432 3.60352 74.5312 3.60352C73.9128 3.60352 73.3333 3.7207 72.793 3.95508C72.2526 4.18945 71.7806 4.50846 71.377 4.91211C70.9733 5.30924 70.6543 5.78125 70.4199 6.32812C70.1855 6.86849 70.0684 7.44466 70.0684 8.05664C70.0684 8.66862 70.1855 9.24479 70.4199 9.78516C70.6543 10.319 70.9733 10.7878 71.377 11.1914C71.7806 11.5951 72.2526 11.9141 72.793 12.1484C73.3333 12.3828 73.9128 12.5 74.5312 12.5C75.1432 12.5 75.7194 12.3828 76.2598 12.1484C76.8066 11.9141 77.2786 11.5951 77.6758 11.1914C78.0794 10.7878 78.3984 10.319 78.6328 9.78516C78.8672 9.24479 78.9844 8.66862 78.9844 8.05664ZM93.418 15H83.6133V0.996094H86.416V12.1973H93.418V15ZM93.7695 5.19531C93.7695 4.61589 93.8802 4.07227 94.1016 3.56445C94.3229 3.05664 94.6224 2.61393 95 2.23633C95.3841 1.85221 95.8301 1.54948 96.3379 1.32812C96.8457 1.10677 97.3893 0.996094 97.9688 0.996094H104.395V3.79883H97.9688C97.7734 3.79883 97.5911 3.83464 97.4219 3.90625C97.2526 3.97786 97.1029 4.07878 96.9727 4.20898C96.849 4.33268 96.7513 4.47917 96.6797 4.64844C96.6081 4.81771 96.5723 5 96.5723 5.19531C96.5723 5.39062 96.6081 5.57617 96.6797 5.75195C96.7513 5.92122 96.849 6.07096 96.9727 6.20117C97.1029 6.32487 97.2526 6.42253 97.4219 6.49414C97.5911 6.56576 97.7734 6.60156 97.9688 6.60156H100.771C101.351 6.60156 101.895 6.71224 102.402 6.93359C102.917 7.14844 103.363 7.44792 103.74 7.83203C104.124 8.20964 104.424 8.6556 104.639 9.16992C104.86 9.67773 104.971 10.2214 104.971 10.8008C104.971 11.3802 104.86 11.9238 104.639 12.4316C104.424 12.9395 104.124 13.3854 103.74 13.7695C103.363 14.1471 102.917 14.4466 102.402 14.668C101.895 14.8893 101.351 15 100.771 15H94.5508V12.1973H100.771C100.967 12.1973 101.149 12.1615 101.318 12.0898C101.488 12.0182 101.634 11.9206 101.758 11.7969C101.888 11.6667 101.989 11.5169 102.061 11.3477C102.132 11.1784 102.168 10.9961 102.168 10.8008C102.168 10.6055 102.132 10.4232 102.061 10.2539C101.989 10.0846 101.888 9.93815 101.758 9.81445C101.634 9.68424 101.488 9.58333 101.318 9.51172C101.149 9.4401 100.967 9.4043 100.771 9.4043H97.9688C97.3893 9.4043 96.8457 9.29362 96.3379 9.07227C95.8301 8.85091 95.3841 8.55143 95 8.17383C94.6224 7.78971 94.3229 7.34375 94.1016 6.83594C93.8802 6.32161 93.7695 5.77474 93.7695 5.19531Z" fill="#5EBA16"/>
</svg>
